<svg width="192" height="124" viewBox="0 0 192 124" fill="none" xmlns="http://www.w3.org/2000/svg">
<g filter="url(#filter0_d_1166_78284)">
<path d="M51.549 55.0279C45.255 59.9031 38.395 63.7084 30.968 66.4438C26.192 68.2086 19.85 69.2454 14.235 70.9771L7.55101 70.6351C7.19801 70.6204 7.022 70.4329 7.022 70.0726L7 39.7626C7 39.3729 7.195 39.1743 7.584 39.167C29.666 38.7148 45.075 22.0045 46.288 0.397076C46.294 0.289782 46.341 0.18876 46.418 0.114867C46.496 0.0409733 46.6 -0.000148508 46.707 4.0302e-07L76.797 0.055153C76.917 0.0551225 77.036 0.0790303 77.146 0.125453C77.257 0.171875 77.357 0.23986 77.44 0.325328C77.524 0.410797 77.589 0.511991 77.632 0.62287C77.675 0.733748 77.695 0.852034 77.69 0.970632C76.859 22.9568 68.146 40.9759 51.549 55.0279Z" fill="#C1272D"/>
<path d="M145.303 2.24026C144.649 2.18879 143.983 2.7697 143.307 3.98298C140.079 9.76997 133.777 20.7447 124.402 36.9071L82.8741 108.954C82.7391 109.186 82.5471 109.378 82.3171 109.511C82.0871 109.645 81.8261 109.715 81.5621 109.715L46.4321 109.461L67.1351 73.3277L109.081 0.563739C109.272 0.240197 109.552 0.0784234 109.919 0.0784234L144.697 0.0673828C145.167 0.0673828 145.391 0.299015 145.369 0.762269L145.303 2.24026Z" fill="white"/>
<path d="M145.303 2.23801C147.465 21.3123 158.223 33.6032 177.577 39.1108C163.444 41.302 151.031 46.5228 140.34 54.7732C134.045 49.9936 128.733 44.0374 124.402 36.9048C133.777 20.7424 140.079 9.76772 143.307 3.98073C143.983 2.76744 144.649 2.18654 145.303 2.23801Z" fill="#252525"/>
<path d="M177.576 39.1108L184.051 39.2211C184.403 39.2284 184.58 39.4086 184.58 39.7615L184.591 70.0936C184.591 70.4613 184.403 70.6524 184.028 70.6672C162.002 71.2628 146.648 87.4987 145.402 109.272C145.38 109.603 145.203 109.768 144.872 109.768L114.585 109.79C114.506 109.79 114.428 109.774 114.356 109.744C114.283 109.713 114.218 109.668 114.163 109.611C114.109 109.555 114.066 109.488 114.038 109.414C114.01 109.341 113.997 109.262 114 109.184C114.698 86.9178 123.478 68.781 140.339 54.7731C151.031 46.5228 163.443 41.302 177.576 39.1108Z" fill="#007C38"/>
<path d="M51.5489 55.0283C58.1889 60.2123 63.3839 66.3118 67.1349 73.3268L46.4309 109.461C44.5049 88.9157 33.7729 76.088 14.2349 70.9775C19.8499 69.2458 26.1919 68.209 30.9679 66.4442C38.3939 63.7088 45.2549 59.9035 51.5489 55.0283Z" fill="#9B0A1B"/>
</g>
<defs>
<filter id="filter0_d_1166_78284" x="0.15854" y="0" width="191.274" height="123.473" filterUnits="userSpaceOnUse" color-interpolation-filters="sRGB">
<feFlood flood-opacity="0" result="BackgroundImageFix"/>
<feColorMatrix in="SourceAlpha" type="matrix" values="0 0 0 0 0 0 0 0 0 0 0 0 0 0 0 0 0 0 127 0" result="hardAlpha"/>
<feOffset dy="6.84146"/>
<feGaussianBlur stdDeviation="3.42073"/>
<feComposite in2="hardAlpha" operator="out"/>
<feColorMatrix type="matrix" values="0 0 0 0 0 0 0 0 0 0 0 0 0 0 0 0 0 0 0.12 0"/>
<feBlend mode="normal" in2="BackgroundImageFix" result="effect1_dropShadow_1166_78284"/>
<feBlend mode="normal" in="SourceGraphic" in2="effect1_dropShadow_1166_78284" result="shape"/>
</filter>
</defs>
</svg>
