<svg width="513" height="206" viewBox="0 0 513 206" fill="none" xmlns="http://www.w3.org/2000/svg">
<g filter="url(#filter0_d_6_2608)">
<path d="M212.137 55.0279C205.843 59.9031 198.983 63.7084 191.556 66.4438C186.78 68.2086 180.438 69.2454 174.823 70.9771L168.139 70.6351C167.786 70.6204 167.61 70.4329 167.61 70.0726L167.588 39.7626C167.588 39.3729 167.783 39.1743 168.172 39.167C190.254 38.7148 205.663 22.0045 206.876 0.397076C206.882 0.289782 206.929 0.18876 207.006 0.114867C207.084 0.0409733 207.188 -0.000148508 207.295 4.03017e-07L237.385 0.055153C237.505 0.0551225 237.624 0.0790303 237.734 0.125453C237.845 0.171875 237.945 0.23986 238.028 0.325328C238.112 0.410797 238.177 0.511991 238.22 0.62287C238.263 0.733748 238.283 0.852034 238.278 0.970632C237.447 22.9568 228.734 40.9759 212.137 55.0279Z" fill="#C1272D"/>
<path d="M305.891 2.2402C305.237 2.18873 304.571 2.76964 303.895 3.98292C300.667 9.76991 294.365 20.7446 284.99 36.907L243.462 108.954C243.327 109.186 243.135 109.378 242.905 109.511C242.675 109.645 242.414 109.715 242.15 109.715L207.02 109.461L227.723 73.3276L269.669 0.563678C269.86 0.240136 270.14 0.0783624 270.507 0.0783624L305.285 0.0673218C305.755 0.0673218 305.979 0.298954 305.957 0.762208L305.891 2.2402Z" fill="white"/>
<path d="M305.891 2.23819C308.053 21.3125 318.811 33.6034 338.165 39.111C324.032 41.3022 311.619 46.523 300.928 54.7734C294.633 49.9938 289.321 44.0376 284.99 36.905C294.365 20.7426 300.667 9.7679 303.895 3.98091C304.571 2.76762 305.237 2.18672 305.891 2.23819Z" fill="#252525"/>
<path d="M338.164 39.111L344.639 39.2213C344.991 39.2286 345.168 39.4088 345.168 39.7617L345.179 70.0938C345.179 70.4615 344.991 70.6526 344.616 70.6674C322.59 71.263 307.236 87.4989 305.99 109.272C305.968 109.603 305.791 109.768 305.46 109.768L275.173 109.79C275.094 109.79 275.016 109.774 274.944 109.744C274.871 109.713 274.806 109.668 274.751 109.611C274.697 109.555 274.654 109.488 274.626 109.414C274.598 109.341 274.585 109.262 274.588 109.184C275.286 86.918 284.066 68.7812 300.927 54.7733C311.619 46.523 324.031 41.3022 338.164 39.111Z" fill="#007C38"/>
<path d="M212.137 55.0284C218.777 60.2124 223.972 66.3119 227.723 73.3269L207.019 109.461C205.093 88.9158 194.361 76.0881 174.823 70.9776C180.438 69.2459 186.78 68.2091 191.556 66.4443C198.982 63.7089 205.843 59.9036 212.137 55.0284Z" fill="#9B0A1B"/>
<path d="M44.7157 153.727L36.5705 161.931C34.7408 160.102 32.1438 159.039 29.1336 159.039C23.1133 159.039 18.7456 163.407 18.7456 169.427C18.7456 175.448 23.1133 179.815 29.1336 179.815C32.1438 179.815 34.7408 178.753 36.5705 176.864L44.8337 185.009C40.8202 189.023 35.272 191.561 29.1336 191.561C16.9159 191.561 7 181.645 7 169.427C7 157.21 16.9159 147.294 29.1336 147.294C35.213 147.294 40.7021 149.714 44.7157 153.727Z" fill="white"/>
<path d="M48.1427 169.486C48.1427 157.269 57.9995 147.294 70.2173 147.294C82.435 147.294 92.3509 157.269 92.3509 169.486C92.3509 181.704 82.435 191.561 70.2173 191.561C57.9995 191.561 48.1427 181.704 48.1427 169.486ZM80.7824 169.427C80.7824 163.584 76.0606 158.862 70.2173 158.862C64.433 158.862 59.7112 163.584 59.7112 169.427C59.7112 175.212 64.433 179.992 70.2173 179.992C76.0606 179.992 80.7824 175.212 80.7824 169.427Z" fill="white"/>
<path d="M95.6599 191.561V147.294H112.068C124.286 147.294 134.202 157.21 134.202 169.427C134.202 181.645 124.286 191.561 112.068 191.561H95.6599ZM107.228 159.157V180.11H112.127C117.912 180.11 122.633 175.389 122.633 169.604C122.633 163.879 117.912 159.157 112.127 159.157H107.228Z" fill="white"/>
<path d="M137.511 191.561V147.294H165.016V156.914H149.138V164.115H163.186V173.913H149.138V182.058H165.016V191.561H137.511Z" fill="white"/>
<path d="M196.713 191.561V147.294H224.454V156.855H208.341V164.056H222.565V173.913H208.341V191.561H196.713Z" fill="white"/>
<path d="M228.866 169.486C228.866 157.269 238.723 147.294 250.941 147.294C263.158 147.294 273.074 157.269 273.074 169.486C273.074 181.704 263.158 191.561 250.941 191.561C238.723 191.561 228.866 181.704 228.866 169.486ZM261.506 169.427C261.506 163.584 256.784 158.862 250.941 158.862C245.156 158.862 240.435 163.584 240.435 169.427C240.435 175.212 245.156 179.992 250.941 179.992C256.784 179.992 261.506 175.212 261.506 169.427Z" fill="white"/>
<path d="M316.56 191.561H303.161L296.315 179.815H289.114V191.561H277.486V147.294H296.138C305.109 147.294 312.428 154.613 312.428 163.584C312.428 168.306 310.362 172.556 307.175 175.507L316.56 191.561ZM289.114 157.091V169.781H296.315C299.856 169.781 302.689 167.007 302.689 163.466C302.689 159.925 299.856 157.091 296.315 157.091H289.114Z" fill="white"/>
<path d="M329.795 176.982C329.795 174.09 330.622 171.434 332.038 169.073L344.669 147.294H355.529L346.676 162.581C353.581 163.702 358.953 169.781 358.953 176.982C358.953 185.009 352.401 191.561 344.374 191.561C336.347 191.561 329.795 185.009 329.795 176.982ZM339.18 176.982C339.18 179.874 341.482 182.176 344.374 182.176C347.207 182.176 349.568 179.874 349.568 176.982C349.568 174.149 347.207 171.788 344.374 171.788C341.482 171.788 339.18 174.149 339.18 176.982Z" fill="#C1272D"/>
<path d="M362.552 172.91C362.552 170.313 364.676 168.188 367.273 168.188C369.87 168.188 371.995 170.313 371.995 172.91C371.995 175.507 369.87 177.631 367.273 177.631C364.676 177.631 362.552 175.507 362.552 172.91ZM362.552 186.839C362.552 184.242 364.676 182.117 367.273 182.117C369.87 182.117 371.995 184.242 371.995 186.839C371.995 189.436 369.87 191.561 367.273 191.561C364.676 191.561 362.552 189.436 362.552 186.839Z" fill="#C1272D"/>
<path d="M376.407 169.486C376.407 157.269 386.264 147.294 398.482 147.294C410.699 147.294 420.615 157.269 420.615 169.486C420.615 181.704 410.699 191.561 398.482 191.561C386.264 191.561 376.407 181.704 376.407 169.486ZM409.047 169.427C409.047 163.584 404.325 158.862 398.482 158.862C392.697 158.862 387.976 163.584 387.976 169.427C387.976 175.212 392.697 179.992 398.482 179.992C404.325 179.992 409.047 175.212 409.047 169.427Z" fill="white"/>
<path d="M425.027 191.561V147.294H441.436C453.653 147.294 463.569 157.21 463.569 169.427C463.569 181.645 453.653 191.561 441.436 191.561H425.027ZM436.596 159.157V180.11H441.495C447.279 180.11 452.001 175.389 452.001 169.604C452.001 163.879 447.279 159.157 441.495 159.157H436.596Z" fill="white"/>
<path d="M495.25 160.869H484.98C484.98 159.039 483.445 157.505 481.616 157.505C479.786 157.505 478.31 159.039 478.31 160.869C478.31 162.699 479.786 164.174 481.616 164.174C485.924 164.174 489.82 166.24 492.299 169.427C494.187 171.788 495.25 174.739 495.25 177.986C495.25 185.541 489.17 191.561 481.616 191.561C474.061 191.561 467.981 185.6 467.981 177.809H478.31C478.31 179.697 479.786 181.173 481.616 181.173C483.445 181.173 484.98 179.697 484.98 177.868C484.98 176.038 483.445 174.503 481.616 174.503C474.061 174.503 468.04 168.483 468.04 160.928C468.04 153.373 474.061 147.294 481.616 147.294C489.17 147.294 495.25 153.314 495.25 160.869Z" fill="white"/>
</g>
<defs>
<filter id="filter0_d_6_2608" x="0.15854" y="0" width="512.45" height="205.244" filterUnits="userSpaceOnUse" color-interpolation-filters="sRGB">
<feFlood flood-opacity="0" result="BackgroundImageFix"/>
<feColorMatrix in="SourceAlpha" type="matrix" values="0 0 0 0 0 0 0 0 0 0 0 0 0 0 0 0 0 0 127 0" result="hardAlpha"/>
<feOffset dy="6.84146"/>
<feGaussianBlur stdDeviation="3.42073"/>
<feComposite in2="hardAlpha" operator="out"/>
<feColorMatrix type="matrix" values="0 0 0 0 0 0 0 0 0 0 0 0 0 0 0 0 0 0 0.12 0"/>
<feBlend mode="normal" in2="BackgroundImageFix" result="effect1_dropShadow_6_2608"/>
<feBlend mode="normal" in="SourceGraphic" in2="effect1_dropShadow_6_2608" result="shape"/>
</filter>
</defs>
</svg>
