<svg width="245" height="37" viewBox="0 0 245 37" fill="none" xmlns="http://www.w3.org/2000/svg">
<g filter="url(#filter0_d_2_107)">
<path d="M15.9584 16.0063C14.1275 17.4243 12.1319 18.5312 9.97166 19.3269C8.58246 19.8402 6.73768 20.1418 5.10465 20.6455L3.16042 20.546C3.05775 20.5418 3.00641 20.4872 3.00641 20.3824L3 11.566C3 11.4526 3.05668 11.3949 3.17004 11.3927C9.59308 11.2612 14.0751 6.40058 14.428 0.1155C14.4296 0.0842904 14.4432 0.0549056 14.4659 0.0334119C14.4886 0.0119181 14.5187 -4.31972e-05 14.5499 1.17228e-07L23.3022 0.0160427C23.3371 0.0160338 23.3717 0.022988 23.4039 0.0364911C23.4361 0.0499943 23.4652 0.0697693 23.4894 0.09463C23.5137 0.119491 23.5326 0.148926 23.5451 0.181178C23.5576 0.213429 23.5634 0.247836 23.5621 0.282333C23.3204 6.67757 20.7858 11.9189 15.9584 16.0063Z" fill="#C1272D"/>
<path d="M43.229 0.65163C43.0387 0.636658 42.8451 0.80563 42.6483 1.15854C41.7094 2.84184 39.8763 6.03411 37.1493 10.7354L25.07 31.692C25.0308 31.7594 24.9749 31.8153 24.9079 31.8541C24.8409 31.893 24.7652 31.9134 24.6882 31.9134L14.4697 31.8396L20.4917 21.3292L32.6929 0.16397C32.7485 0.0698598 32.8298 0.0228037 32.9368 0.0228037L43.0526 0.0195923C43.1895 0.0195923 43.2547 0.0869684 43.2483 0.221717L43.229 0.65163Z" fill="white"/>
<path d="M43.229 0.65103C43.8579 6.19927 46.9871 9.7744 52.6166 11.3764C48.5057 12.0138 44.8952 13.5324 41.7853 15.9322C39.9544 14.542 38.4091 12.8095 37.1493 10.7348C39.8764 6.03351 41.7094 2.84124 42.6483 1.15794C42.8451 0.80503 43.0387 0.636058 43.229 0.65103Z" fill="#252525"/>
<path d="M52.6165 11.3764L54.4998 11.4085C54.6024 11.4107 54.6538 11.4631 54.6538 11.5657L54.657 20.3886C54.657 20.4955 54.6024 20.5511 54.4933 20.5554C48.0863 20.7287 43.6204 25.4513 43.2578 31.7845C43.2514 31.8808 43.2001 31.9289 43.1038 31.9289L34.2938 31.9353C34.2709 31.9353 34.2483 31.9307 34.2272 31.9218C34.2062 31.9128 34.1871 31.8997 34.1713 31.8832C34.1554 31.8668 34.143 31.8473 34.1348 31.8259C34.1267 31.8045 34.1229 31.7817 34.1238 31.7588C34.327 25.2823 36.8808 20.0068 41.7852 15.9322C44.8952 13.5324 48.5056 12.0138 52.6165 11.3764Z" fill="#007C38"/>
<path d="M15.9583 16.0064C17.8897 17.5143 19.4008 19.2885 20.4917 21.329L14.4697 31.8394C13.9093 25.8634 10.7876 22.1321 5.10461 20.6456C6.73765 20.1419 8.58242 19.8403 9.97162 19.327C12.1319 18.5314 14.1275 17.4245 15.9583 16.0064Z" fill="#9B0A1B"/>
<path d="M80.986 10.4723L78.1348 13.3441C77.4944 12.7036 76.5853 12.3317 75.5316 12.3317C73.4243 12.3317 71.8954 13.8606 71.8954 15.9679C71.8954 18.0753 73.4243 19.6042 75.5316 19.6042C76.5853 19.6042 77.4944 19.2323 78.1348 18.5711L81.0273 21.4223C79.6224 22.8272 77.6803 23.7156 75.5316 23.7156C71.2549 23.7156 67.784 20.2446 67.784 15.9679C67.784 11.6912 71.2549 8.22031 75.5316 8.22031C77.6596 8.22031 79.581 9.06738 80.986 10.4723Z" fill="white"/>
<path d="M82.1855 15.9886C82.1855 11.7119 85.6358 8.22031 89.9125 8.22031C94.1892 8.22031 97.6601 11.7119 97.6601 15.9886C97.6601 20.2653 94.1892 23.7156 89.9125 23.7156C85.6358 23.7156 82.1855 20.2653 82.1855 15.9886ZM93.6107 15.9679C93.6107 13.9226 91.9579 12.2697 89.9125 12.2697C87.8878 12.2697 86.235 13.9226 86.235 15.9679C86.235 17.9926 87.8878 19.6661 89.9125 19.6661C91.9579 19.6661 93.6107 17.9926 93.6107 15.9679Z" fill="white"/>
<path d="M98.8184 23.7156V8.22031H104.562C108.839 8.22031 112.31 11.6912 112.31 15.9679C112.31 20.2446 108.839 23.7156 104.562 23.7156H98.8184ZM102.868 12.373V19.7075H104.583C106.607 19.7075 108.26 18.0546 108.26 16.0299C108.26 14.0259 106.607 12.373 104.583 12.373H102.868Z" fill="white"/>
<path d="M113.468 23.7156V8.22031H123.096V11.5879H117.538V14.1085H122.455V17.5381H117.538V20.3892H123.096V23.7156H113.468Z" fill="white"/>
<path d="M134.191 23.7156V8.22031H143.901V11.5673H138.261V14.0878H143.24V17.5381H138.261V23.7156H134.191Z" fill="white"/>
<path d="M145.446 15.9886C145.446 11.7119 148.896 8.22031 153.173 8.22031C157.449 8.22031 160.92 11.7119 160.92 15.9886C160.92 20.2653 157.449 23.7156 153.173 23.7156C148.896 23.7156 145.446 20.2653 145.446 15.9886ZM156.871 15.9679C156.871 13.9226 155.218 12.2697 153.173 12.2697C151.148 12.2697 149.495 13.9226 149.495 15.9679C149.495 17.9926 151.148 19.6661 153.173 19.6661C155.218 19.6661 156.871 17.9926 156.871 15.9679Z" fill="white"/>
<path d="M176.142 23.7156H171.452L169.055 19.6042H166.535V23.7156H162.465V8.22031H168.993C172.134 8.22031 174.696 10.7822 174.696 13.9226C174.696 15.5754 173.973 17.0629 172.857 18.0959L176.142 23.7156ZM166.535 11.6499V16.0919H169.055C170.295 16.0919 171.287 15.1209 171.287 13.8812C171.287 12.6416 170.295 11.6499 169.055 11.6499H166.535Z" fill="white"/>
<path d="M180.775 18.6125C180.775 17.6001 181.064 16.6704 181.56 15.844L185.981 8.22031H189.783L186.684 13.5713C189.101 13.9639 190.981 16.0919 190.981 18.6125C190.981 21.4223 188.688 23.7156 185.878 23.7156C183.068 23.7156 180.775 21.4223 180.775 18.6125ZM184.06 18.6125C184.06 19.6248 184.866 20.4306 185.878 20.4306C186.87 20.4306 187.696 19.6248 187.696 18.6125C187.696 17.6208 186.87 16.7943 185.878 16.7943C184.866 16.7943 184.06 17.6208 184.06 18.6125Z" fill="#C1272D"/>
<path d="M192.241 17.1869C192.241 16.2778 192.985 15.5341 193.894 15.5341C194.803 15.5341 195.546 16.2778 195.546 17.1869C195.546 18.0959 194.803 18.8397 193.894 18.8397C192.985 18.8397 192.241 18.0959 192.241 17.1869ZM192.241 22.0627C192.241 21.1537 192.985 20.4099 193.894 20.4099C194.803 20.4099 195.546 21.1537 195.546 22.0627C195.546 22.9718 194.803 23.7155 193.894 23.7155C192.985 23.7155 192.241 22.9718 192.241 22.0627Z" fill="#C1272D"/>
<path d="M197.091 15.9886C197.091 11.7119 200.541 8.22031 204.818 8.22031C209.094 8.22031 212.565 11.7119 212.565 15.9886C212.565 20.2653 209.094 23.7156 204.818 23.7156C200.541 23.7156 197.091 20.2653 197.091 15.9886ZM208.516 15.9679C208.516 13.9226 206.863 12.2697 204.818 12.2697C202.793 12.2697 201.14 13.9226 201.14 15.9679C201.14 17.9926 202.793 19.6661 204.818 19.6661C206.863 19.6661 208.516 17.9926 208.516 15.9679Z" fill="white"/>
<path d="M214.11 23.7156V8.22031H219.853C224.13 8.22031 227.601 11.6912 227.601 15.9679C227.601 20.2446 224.13 23.7156 219.853 23.7156H214.11ZM218.159 12.373V19.7075H219.874C221.899 19.7075 223.552 18.0546 223.552 16.0299C223.552 14.0259 221.899 12.373 219.874 12.373H218.159Z" fill="white"/>
<path d="M238.69 12.9722H235.096C235.096 12.3317 234.558 11.7945 233.918 11.7945C233.277 11.7945 232.761 12.3317 232.761 12.9722C232.761 13.6127 233.277 14.1292 233.918 14.1292C235.426 14.1292 236.79 14.8523 237.657 15.9679C238.319 16.7943 238.69 17.8274 238.69 18.9637C238.69 21.6082 236.562 23.7156 233.918 23.7156C231.273 23.7156 229.145 21.6289 229.145 18.9017H232.761C232.761 19.5628 233.277 20.0793 233.918 20.0793C234.558 20.0793 235.096 19.5628 235.096 18.9224C235.096 18.2819 234.558 17.7447 233.918 17.7447C231.273 17.7447 229.166 15.6374 229.166 12.9928C229.166 10.3483 231.273 8.22031 233.918 8.22031C236.562 8.22031 238.69 10.3277 238.69 12.9722Z" fill="white"/>
</g>
<defs>
<filter id="filter0_d_2_107" x="0.605223" y="0" width="244.161" height="36.7254" filterUnits="userSpaceOnUse" color-interpolation-filters="sRGB">
<feFlood flood-opacity="0" result="BackgroundImageFix"/>
<feColorMatrix in="SourceAlpha" type="matrix" values="0 0 0 0 0 0 0 0 0 0 0 0 0 0 0 0 0 0 127 0" result="hardAlpha"/>
<feOffset dy="2.39478"/>
<feGaussianBlur stdDeviation="1.19739"/>
<feComposite in2="hardAlpha" operator="out"/>
<feColorMatrix type="matrix" values="0 0 0 0 0 0 0 0 0 0 0 0 0 0 0 0 0 0 0.12 0"/>
<feBlend mode="normal" in2="BackgroundImageFix" result="effect1_dropShadow_2_107"/>
<feBlend mode="normal" in="SourceGraphic" in2="effect1_dropShadow_2_107" result="shape"/>
</filter>
</defs>
</svg>
