<svg width="715" height="101" viewBox="0 0 715 101" fill="none" xmlns="http://www.w3.org/2000/svg">
<path d="M48.0242 33.422L39.9409 41.5639C38.1251 39.748 35.5478 38.6937 32.5605 38.6937C26.586 38.6937 22.2515 43.0282 22.2515 49.0028C22.2515 54.9774 26.586 59.3119 32.5605 59.3119C35.5478 59.3119 38.1251 58.2575 39.9409 56.3832L48.1413 64.4664C44.1583 68.4495 38.6523 70.9682 32.5605 70.9682C20.4357 70.9682 10.5952 61.1277 10.5952 49.0028C10.5952 36.8779 20.4357 27.0374 32.5605 27.0374C38.5937 27.0374 44.0411 29.439 48.0242 33.422ZM55.2165 49.0614C55.2165 36.9365 64.9984 27.0374 77.1233 27.0374C89.2482 27.0374 99.0887 36.9365 99.0887 49.0614C99.0887 61.1863 89.2482 70.9682 77.1233 70.9682C64.9984 70.9682 55.2165 61.1863 55.2165 49.0614ZM87.6081 49.0028C87.6081 43.2039 82.9221 38.518 77.1233 38.518C71.383 38.518 66.697 43.2039 66.697 49.0028C66.697 54.7431 71.383 59.4876 77.1233 59.4876C82.9221 59.4876 87.6081 54.7431 87.6081 49.0028ZM107.119 70.9682V27.0374H123.403C135.527 27.0374 145.368 36.8779 145.368 49.0028C145.368 61.1277 135.527 70.9682 123.403 70.9682H107.119ZM118.599 38.8109V59.6048H123.461C129.201 59.6048 133.887 54.9188 133.887 49.1785C133.887 43.4968 129.201 38.8109 123.461 38.8109H118.599ZM153.338 70.9682V27.0374H180.633V36.585H164.877V43.7311H178.818V53.4544H164.877V61.5377H180.633V70.9682H153.338ZM215.287 70.9682V27.0374H242.817V36.5265H226.826V43.6725H240.943V53.4544H226.826V70.9682H215.287ZM250.216 49.0614C250.216 36.9365 259.998 27.0374 272.123 27.0374C284.248 27.0374 294.089 36.9365 294.089 49.0614C294.089 61.1863 284.248 70.9682 272.123 70.9682C259.998 70.9682 250.216 61.1863 250.216 49.0614ZM282.608 49.0028C282.608 43.2039 277.922 38.518 272.123 38.518C266.383 38.518 261.697 43.2039 261.697 49.0028C261.697 54.7431 266.383 59.4876 272.123 59.4876C277.922 59.4876 282.608 54.7431 282.608 49.0028ZM340.895 70.9682H327.599L320.804 59.3119H313.658V70.9682H302.119V27.0374H320.628C329.532 27.0374 336.795 34.3006 336.795 43.2039C336.795 47.8899 334.745 52.1072 331.582 55.036L340.895 70.9682ZM313.658 36.7608V49.3542H320.804C324.319 49.3542 327.13 46.6012 327.13 43.0868C327.13 39.5723 324.319 36.7608 320.804 36.7608H313.658ZM381.545 70.9682H370.006L390.507 27.0374H395.72L416.397 70.9682H404.857L402.163 65.2279H384.181L381.545 70.9682ZM393.201 45.8398L388.691 55.5046H397.653L393.201 45.8398ZM487.388 70.9682H474.092L467.297 59.3119H460.151V70.9682H448.612V27.0374H467.121C476.025 27.0374 483.288 34.3006 483.288 43.2039C483.288 47.8899 481.238 52.1072 478.075 55.036L487.388 70.9682ZM460.151 36.7608V49.3542H467.297C470.812 49.3542 473.623 46.6012 473.623 43.0868C473.623 39.5723 470.812 36.7608 467.297 36.7608H460.151ZM493.058 70.9682V27.0374H520.353V36.585H504.597V43.7311H518.537V53.4544H504.597V61.5377H520.353V70.9682H493.058ZM607.735 40.5095H597.543C597.543 38.6937 596.02 37.1708 594.204 37.1708C592.389 37.1708 590.924 38.6937 590.924 40.5095C590.924 42.3253 592.389 43.7897 594.204 43.7897C598.48 43.7897 602.346 45.8398 604.806 49.0028C606.681 51.3458 607.735 54.2745 607.735 57.4961C607.735 64.9936 601.702 70.9682 594.204 70.9682C586.707 70.9682 580.674 65.0522 580.674 57.3204H590.924C590.924 59.1947 592.389 60.6591 594.204 60.6591C596.02 60.6591 597.543 59.1947 597.543 57.3789C597.543 55.5631 596.02 54.0402 594.204 54.0402C586.707 54.0402 580.732 48.0656 580.732 40.5681C580.732 33.0706 586.707 27.0374 594.204 27.0374C601.702 27.0374 607.735 33.012 607.735 40.5095ZM614.476 49.0614C614.476 36.9365 624.258 27.0374 636.383 27.0374C648.507 27.0374 658.348 36.9365 658.348 49.0614C658.348 61.1863 648.507 70.9682 636.383 70.9682C624.258 70.9682 614.476 61.1863 614.476 49.0614ZM646.867 49.0028C646.867 43.2039 642.181 38.518 636.383 38.518C630.642 38.518 625.956 43.2039 625.956 49.0028C625.956 54.7431 630.642 59.4876 636.383 59.4876C642.181 59.4876 646.867 54.7431 646.867 49.0028ZM703.397 70.9682H698.653L677.917 50.1743V70.9682H666.378V27.0374H671.064L691.858 47.7727V27.0374H703.397V70.9682Z" fill="white"/>
<path fill-rule="evenodd" clip-rule="evenodd" d="M565.175 56.2143C565.554 49.2094 570.03 42.6346 570.752 38.1268C570.702 33.826 571.116 33.5688 572.015 30.8505C574.012 25.5582 571.568 19.9669 571.593 14.5433C571.204 10.9339 575.339 6.78625 574.933 2.98145C574.654 0.375657 571.424 0.165326 569.931 1.14864C568.78 1.85969 568.363 3.46229 567.475 4.04295C566.04 4.79521 564.278 4.16178 562.515 4.10882C560.474 3.92383 557.776 4.55841 557.559 6.15241C557.354 7.69441 557.859 10.1452 556.75 10.668C555.512 11.312 553.833 11.487 552.967 12.5478C551.6 14.4592 551.73 16.9357 551.472 19.1805C551.207 21.4861 550.746 23.3505 550.224 25.9575C549.125 30.8045 548.185 35.0704 546.133 38.7086C542.875 44.3253 537.432 47.205 532.561 51.7354C531.89 52.85 535.617 59.7571 535.771 60.4425C541.092 71.3947 541.371 73.3255 542.834 79.2269C544.859 86.8218 547.649 89.6196 549.163 96.8158C549.598 98.1988 549.729 99.6363 550.49 99.9044C552.667 101.24 555.942 92.2424 556.474 91.6172C557.313 89.5742 560.939 87.236 561.275 84.5638C561.517 83.3475 561.404 82.107 561.183 80.7958C560.819 78.4817 559.929 76.2858 560.639 74.1477C560.904 73.3983 561.331 72.7332 561.803 72.0366C564.41 68.5573 564.718 66.8809 565.592 64.0506C567.095 57.9413 570.452 58.1322 565.175 56.2143ZM565.393 58.5257C564.433 60.1383 564.189 60.7642 563.744 62.2125C561.523 71.0986 558.317 71.1739 558.052 75.2717C557.873 77.8564 559.1 80.615 559.082 83.255C559.251 86.2514 554.762 88.9278 554.218 91.0423C554.005 91.4894 553.69 92.1503 553.312 92.9203C552.756 94.0544 552.085 95.3775 551.468 96.4616C549.511 88.5459 548.321 87.9461 546.197 82.3397C545.528 80.4933 545.071 78.6962 544.601 76.8293C542.703 67.7497 537.856 60.7837 534.904 52.5118C545.087 44.0218 548.645 42.5084 551.592 30.2983C554.888 17.2044 553.395 15.7912 554.918 13.6746C555.921 12.9917 557.345 12.9228 558.325 12.172C560.189 11.0604 559.804 8.03431 559.881 6.51921C561.917 5.42968 565.088 6.83467 567.304 6.27322C569.667 5.83493 570.144 4.18753 571.095 2.99762C572.235 2.09038 572.824 2.91408 572.604 3.8718C571.291 9.66442 568.624 10.8658 569.309 15.644C570.659 28.2308 571.292 25.9869 568.704 33.6696C568.152 35.9093 568.826 38.377 567.615 40.6384C566.423 44.0574 564.828 46.8664 563.766 50.8461C562.428 56.9584 562.282 57.5273 565.393 58.5257Z" fill="#C1272D"/>
</svg>
